/* XPM */
static char * bleed_xpm[] = {
"30 30 3 1",
" 	c None",
".	c #000000000000",
"X	c #FFFF00000000",
"    .                         ",
"    .                         ",
"   .X.                        ",
"   .X.                        ",
"  .XXX.        .              ",
"  .XXX.        .              ",
"  .XXX.       .X.             ",
" ..XXX..      .X.             ",
" .XXXXX.     .XXX.            ",
" .XXXXX.     .XXX.            ",
" .XXXXX.     .XXX.            ",
"  .XXX.     ..XXX..           ",
"   ...      .XXXXX.           ",
"            .XXXXX.           ",
"            .XXXXX.      .    ",
"             .XXX.       .    ",
"              ...       .X.   ",
"      .                 .X.   ",
"      .                .XXX.  ",
"     .X.               .XXX.  ",
"     .X.               .XXX.  ",
"    .XXX.             ..XXX.. ",
"    .XXX.             .XXXXX. ",
"    .XXX.             .XXXXX. ",
"   ..XXX..            .XXXXX. ",
"   .XXXXX.             .XXX.  ",
"   .XXXXX.              ...   ",
"   .XXXXX.                    ",
"    .XXX.                     ",
"     ...                      "};
