/* XPM */
static char * dead_xpm[] = {
"30 30 3 1",
" 	c None",
"-	c #FFFFFFFFFFFF",
".	c #000000000000",
"                              ",
"                              ",
"                              ",
"                              ",
"                              ",
"            ....              ",
"          ..----..            ",
"          .------.            ",
"         .--------.           ",
"        .----------.          ",
"        .-.--.-.--.-.         ",
"       .---..---..--.         ",
"       .---..---..--.         ",
"       .---..---..--.         ",
"       .--.--.-.--.-.         ",
"       .------------.         ",
"       .------------.         ",
"  ...  .------------.    .... ",
" ..-.  .-----..-----.    .--. ",
" .--.   .---.  .---.     .--..",
"..---.  .---.  .---.    ..---.",
".-----.  .---..---.   ..-----.",
"..-.---.. .------.  ..------. ",
"  ...----...----....-----...  ",
"     .----. ......-----..     ",
"      ..---.---.-----..       ",
"        .----------..         ",
"         .-------..           ",
"        .----.----..          ",
"       .---.. ..---...        "};
