/* XPM */
static char * hide_xpm[] = {
"35 35 177 2",
"  	c None",
". 	c #262526",
"+ 	c #403F40",
"@ 	c #383738",
"# 	c #959395",
"$ 	c #4E4D4E",
"% 	c #454445",
"& 	c #6A696A",
"* 	c #C0BFC0",
"= 	c #B2B1B2",
"- 	c #AFAEAF",
"; 	c #AEADAE",
"> 	c #A6A5A6",
", 	c #9E9D9E",
"' 	c #848384",
") 	c #151516",
"! 	c #2E2E2F",
"~ 	c #6D6D6F",
"{ 	c #3F3F40",
"] 	c #383839",
"^ 	c #8A8A8C",
"/ 	c #89898B",
"( 	c #7C7C7D",
"_ 	c #6E6E6F",
": 	c #666667",
"< 	c #CBCBCC",
"[ 	c #C3C3C4",
"} 	c #BFBFC0",
"| 	c #BBBBBC",
"1 	c #AFAFB0",
"2 	c #ADADAE",
"3 	c #A9A9AA",
"4 	c #959596",
"5 	c #919192",
"6 	c #8F8F90",
"7 	c #878788",
"8 	c #1C1D1D",
"9 	c #222323",
"0 	c #212222",
"a 	c #2C2D2D",
"b 	c #3F4040",
"c 	c #989A9A",
"d 	c #979999",
"e 	c #818383",
"f 	c #535454",
"g 	c #505151",
"h 	c #BEC0C0",
"i 	c #ACAEAE",
"j 	c #777878",
"k 	c #757676",
"l 	c #737474",
"m 	c #5E5F5F",
"n 	c #5D5E5E",
"o 	c #5A5B5B",
"p 	c #C3C4C4",
"q 	c #BBBCBC",
"r 	c #B5B6B6",
"s 	c #A5A6A6",
"t 	c #9D9E9E",
"u 	c #0A0B0A",
"v 	c #3B3C3B",
"w 	c #A4A6A4",
"x 	c #959795",
"y 	c #535453",
"z 	c #AFB1AF",
"A 	c #B9BAB9",
"B 	c #B7B8B7",
"C 	c #8E8F8E",
"D 	c #828382",
"E 	c #A1A19F",
"F 	c #B0B0AE",
"G 	c #80807F",
"H 	c #727271",
"I 	c #656564",
"J 	c #565655",
"K 	c #CBCBCA",
"L 	c #CACAC9",
"M 	c #C9C9C8",
"N 	c #C0C0BF",
"O 	c #BCBCBB",
"P 	c #A8A8A7",
"Q 	c #989897",
"R 	c #959594",
"S 	c #3D3B3B",
"T 	c #252424",
"U 	c #7D7B7B",
"V 	c #363535",
"W 	c #9A9898",
"X 	c #8F8D8D",
"Y 	c #888686",
"Z 	c #777676",
"` 	c #696868",
" .	c #646363",
"..	c #5A5959",
"+.	c #BAB9B9",
"@.	c #B2B1B1",
"#.	c #A8A7A7",
"$.	c #A7A6A6",
"%.	c #9C9B9B",
"&.	c #8A8989",
"*.	c #CDCDCD",
"=.	c #C6C6C6",
"-.	c #C3C3C3",
";.	c #C1C1C1",
">.	c #BFBFBF",
",.	c #BCBCBC",
"'.	c #BBBBBB",
").	c #B8B8B8",
"!.	c #B6B6B6",
"~.	c #B4B4B4",
"{.	c #B3B3B3",
"].	c #B1B1B1",
"^.	c #ADADAD",
"/.	c #ABABAB",
"(.	c #A9A9A9",
"_.	c #A4A4A4",
":.	c #A3A3A3",
"<.	c #A1A1A1",
"[.	c #9F9F9F",
"}.	c #9E9E9E",
"|.	c #9D9D9D",
"1.	c #9B9B9B",
"2.	c #999999",
"3.	c #969696",
"4.	c #939393",
"5.	c #919191",
"6.	c #8C8C8C",
"7.	c #8B8B8B",
"8.	c #898989",
"9.	c #868686",
"0.	c #858585",
"a.	c #818181",
"b.	c #7F7F7F",
"c.	c #7E7E7E",
"d.	c #7A7A7A",
"e.	c #757575",
"f.	c #737373",
"g.	c #717171",
"h.	c #6D6D6D",
"i.	c #6A6A6A",
"j.	c #636363",
"k.	c #616161",
"l.	c #5C5C5C",
"m.	c #565656",
"n.	c #555555",
"o.	c #525252",
"p.	c #4F4F4F",
"q.	c #4D4D4D",
"r.	c #4B4B4B",
"s.	c #494949",
"t.	c #464646",
"u.	c #434343",
"v.	c #414141",
"w.	c #3E3E3E",
"x.	c #3D3D3D",
"y.	c #373737",
"z.	c #343434",
"A.	c #333333",
"B.	c #313131",
"C.	c #2A2A2A",
"D.	c #282828",
"E.	c #262626",
"F.	c #202020",
"G.	c #1E1E1E",
"H.	c #1A1A1A",
"I.	c #181818",
"J.	c #171717",
"K.	c #151515",
"L.	c #131313",
"M.	c #111111",
"N.	c #0F0F0F",
"O.	c #0C0C0C",
"P.	c #090909",
"Q.	c #070707",
"R.	c #050505",
"S.	c #030303",
"T.	c #010101",
"                                                                      ",
"                                                                      ",
"                                                                      ",
"                                                                      ",
"                                                                      ",
"                                - ^.z                                 ",
"                        - :.|.d R 4 3.Q <.; ,.                        ",
"                      3 c 7.b.d.j e.k U 9.3.#.+.                      ",
"                  ).$.# D g.j.m.f g y n i.( 4.$.A M                   ",
"                A P R b.i.m.t.v V A.y.{ q.j.d.4./.'.L                 ",
"                2 1.D i.o.+ ] ! 9 G.9 C.V s.j.b.1.- N                 ",
"              ).w 6.f.m.b ] m.o.T G.x.v.a z.g h.&.:.!.=.              ",
"            -.= 1.a.I s.! @ !.!.D.a !.!.V E.w.l.c.2.- } *.            ",
"            ,.3 4 Z o x.T 8 ! C.N.L.z.V H.H.B.o.l 5._.A =.            ",
"            r :.6._ y z.G.N.P.R.S.S.R.Q.u K.C.s.i.&.<.{.-.            ",
"            F |.9.h.p.B.H.O.Q.S.S.T.S.S.Q.M.T % I 0., - ;.            ",
"          O /.W ' & q.B.H.O.Q.S.T.T.T.S.Q.M.9 u.j.' 1.- >.*.          ",
"          '.(.2.9.h.g A.8 O.Q.S.T.T.T.S.Q.M.. u. .' 1.; >.<           ",
"          q ^.1.8.f.n.@ F.N.Q.R.S.T.S.S.Q.M.E.t.: 0.1.- >.*.          ",
"            ^.E C d.m w.E.L.P.R.S.S.S.R.u ) a $ _ 8.[.@.;.            ",
"            {.s 3.D i.q.! H.N.Q.R.R.R.P.N.G.y.m.l 6 :.r p             ",
"            )./.t ^ e...x.E.K.O.P.P.P.O.J.C.% k.G d (.'.M             ",
"            >.~.> 2.' ` q.A.0 ) M.N.M.I.. @ f g.8.[.].;.*.            ",
"              | 1 :.5.d.k.t.A.. G.8 F.D.y.p.` a.Q 3 '.=.              ",
"                A ; }./ l n r.S z.A.V { $ j.d.5 > ~.-.                ",
"                -.).^.%.7 f.j.J q.r.p.o : d.C E = * <                 ",
"                  [ B 3 1.8.d.~ & : & H c.X [.- >.K                   ",
"                      ).3 |.6 Y b.b.e 8.4.<.= h                       ",
"                        A ^._.%.Q x 2.}.$.~.*                         ",
"                                ^./.i                                 ",
"                                                                      ",
"                                                                      ",
"                                                                      ",
"                                                                      ",
"                                                                      "};
