/* XPM */
static char * right_hand_xpm[] = {
"50 38 256 2",
"  	c None",
". 	c #EEBC94",
"+ 	c #876636",
"@ 	c #8A6837",
"# 	c #886737",
"$ 	c #896838",
"% 	c #8B6A3A",
"& 	c #8A6838",
"* 	c #8E6A3A",
"= 	c #8C6939",
"- 	c #8B6939",
"; 	c #906C3C",
"> 	c #8E6B3B",
", 	c #8F6B3C",
"' 	c #8F6C3C",
") 	c #8D6A3B",
"! 	c #946F3F",
"~ 	c #8D6B3C",
"{ 	c #916E3E",
"] 	c #926E3F",
"^ 	c #906D3E",
"/ 	c #947041",
"( 	c #926F40",
"_ 	c #937041",
": 	c #967243",
"< 	c #977344",
"[ 	c #997546",
"} 	c #9B7748",
"| 	c #9C7849",
"1 	c #926B3B",
"2 	c #946D3D",
"3 	c #966F3F",
"4 	c #997141",
"5 	c #977040",
"6 	c #987142",
"7 	c #9B7344",
"8 	c #987243",
"9 	c #967142",
"0 	c #9B7445",
"a 	c #987344",
"b 	c #9E7747",
"c 	c #9D7647",
"d 	c #997445",
"e 	c #957143",
"f 	c #9B7647",
"g 	c #9E7849",
"h 	c #9C7748",
"i 	c #9A7547",
"j 	c #A37B4C",
"k 	c #A07A4C",
"l 	c #9E794B",
"m 	c #A37C4E",
"n 	c #A67F51",
"o 	c #A98355",
"p 	c #A27544",
"q 	c #9C7242",
"r 	c #A67847",
"s 	c #9F7445",
"t 	c #A27747",
"u 	c #A37748",
"v 	c #AA7D4D",
"w 	c #A17849",
"x 	c #A67C4E",
"y 	c #AE8253",
"z 	c #AA8153",
"A 	c #AF8456",
"B 	c #AD8456",
"C 	c #AB8355",
"D 	c #A88154",
"E 	c #AA8356",
"F 	c #B1875A",
"G 	c #AE8659",
"H 	c #B1885B",
"I 	c #B58B5E",
"J 	c #B2895C",
"K 	c #B48C5F",
"L 	c #BA9165",
"M 	c #A47545",
"N 	c #AB7A4A",
"O 	c #A97B4B",
"P 	c #AD7F50",
"Q 	c #B18254",
"R 	c #B38556",
"S 	c #B58658",
"T 	c #B4885A",
"U 	c #BE8F61",
"V 	c #B88C5F",
"W 	c #B88D60",
"X 	c #C19366",
"Y 	c #C29568",
"Z 	c #BF9367",
"` 	c #C6996D",
" .	c #C5986C",
"..	c #C1956A",
"+.	c #BF9569",
"@.	c #C2976B",
"#.	c #C1966B",
"$.	c #C59A6E",
"%.	c #C2976C",
"&.	c #C69A6F",
"*.	c #C4996E",
"=.	c #C89C71",
"-.	c #C79B70",
";.	c #CA9E73",
">.	c #C99D72",
",.	c #CCA075",
"'.	c #CB9F74",
").	c #AE7B4B",
"!.	c #B07D4D",
"~.	c #BA8453",
"{.	c #B68252",
"].	c #B38151",
"^.	c #B88455",
"/.	c #B48354",
"(.	c #BD895A",
"_.	c #BB8859",
":.	c #BF8B5D",
"<.	c #C48F60",
"[.	c #B9895B",
"}.	c #C69365",
"|.	c #C49264",
"1.	c #C79466",
"2.	c #CA976A",
"3.	c #C69669",
"4.	c #D09D70",
"5.	c #C9996D",
"6.	c #CA9B6F",
"7.	c #CE9E73",
"8.	c #CB9C71",
"9.	c #CA9D72",
"0.	c #D1A278",
"a.	c #CEA177",
"b.	c #D6A77D",
"c.	c #D5A67C",
"d.	c #D1A47A",
"e.	c #DBAC82",
"f.	c #D9AB81",
"g.	c #C28452",
"h.	c #C08352",
"i.	c #C48957",
"j.	c #BE8555",
"k.	c #B98253",
"l.	c #CF9666",
"m.	c #C79163",
"n.	c #CF996B",
"o.	c #D59D70",
"p.	c #DAA57A",
"q.	c #DBA77C",
"r.	c #DFAB80",
"s.	c #DAA87D",
"t.	c #DCA97F",
"u.	c #E2B085",
"v.	c #E6B288",
"w.	c #DFAE84",
"x.	c #DDAD83",
"y.	c #D8A980",
"z.	c #E8B48A",
"A.	c #E0AF86",
"B.	c #E9B68D",
"C.	c #E5B38A",
"D.	c #EBB88F",
"E.	c #E6B58C",
"F.	c #EDBA91",
"G.	c #E8B78E",
"H.	c #E5B48C",
"I.	c #EAB990",
"J.	c #C18657",
"K.	c #C68A5A",
"L.	c #CC8E5E",
"M.	c #D59566",
"N.	c #DB9B6C",
"O.	c #D2986A",
"P.	c #D59B6D",
"Q.	c #DFA173",
"R.	c #E2A576",
"S.	c #DA9F72",
"T.	c #E8A97B",
"U.	c #E2A679",
"V.	c #DFA679",
"W.	c #D7A074",
"X.	c #E8AB7E",
"Y.	c #E2A87B",
"Z.	c #E6AA7E",
"`.	c #E9AD81",
" +	c #E9AE82",
".+	c #EAB083",
"++	c #E0A97E",
"@+	c #EAB085",
"#+	c #E8B084",
"$+	c #E5AE82",
"%+	c #EAB186",
"&+	c #E2AB81",
"*+	c #EBB287",
"=+	c #E5AF84",
"-+	c #EBB388",
";+	c #E8B287",
">+	c #E2AD83",
",+	c #EBB489",
"'+	c #E9B388",
")+	c #E6B086",
"!+	c #ECB58B",
"~+	c #EBB48A",
"{+	c #ECB58C",
"]+	c #E6B188",
"^+	c #ECB68D",
"/+	c #EBB58C",
"(+	c #EBB68D",
"_+	c #EEB990",
":+	c #EDB88F",
"<+	c #ECB78E",
"[+	c #E6B38B",
"}+	c #EDB990",
"|+	c #EAB78F",
"1+	c #EEBA92",
"2+	c #EDBA92",
"3+	c #EEBB93",
"4+	c #D9915E",
"5+	c #D68E5C",
"6+	c #E19663",
"7+	c #D59161",
"8+	c #E39A69",
"9+	c #E19968",
"0+	c #E39B6A",
"a+	c #D79364",
"b+	c #D79464",
"c+	c #E39C6B",
"d+	c #E49C6C",
"e+	c #DB9768",
"f+	c #E09B6C",
"g+	c #E49E6F",
"h+	c #E59F70",
"i+	c #E5A071",
"j+	c #E6A273",
"k+	c #E6A374",
"l+	c #E6A475",
"m+	c #E6A376",
"n+	c #E7A578",
"o+	c #E6A577",
"p+	c #E4A376",
"q+	c #E7A679",
"r+	c #E8A97C",
"s+	c #E7A87B",
"t+	c #E7A77B",
"u+	c #E8AA7D",
"v+	c #E7A97C",
"w+	c #E8AB80",
"x+	c #E9AD82",
"y+	c #EAAE83",
"z+	c #EAAF84",
"A+	c #E9AF85",
"B+	c #E29664",
"C+	c #E29766",
"D+	c #DD9464",
"E+	c #E29867",
"F+	c #E39968",
"G+	c #E4A073",
"                                      & > +                                                         ",
"                                    + m b.F < (                                                     ",
"                                    + D 2+D.0.' -                                                   ",
"                                      $ ..}+}+[+H ) $ %                                             ",
"                                        ' I ^+<+D.v.f f % & # &                                     ",
"                                          - V ]+<+6.7.^+'+p.U , + #                                 ",
"                                            ^ + 6.>+<+^+{+~+@+ +}.> $                               ",
"                                              0 + h t.^+^+{+-+.+`.U.Q + *                           ",
"                                                  / ' t.^+{+~+-+@+`.X.R.6 - =                       ",
"                                                    9 / ~+^+{+!+*+@+`.X.T.m.{ =                     ",
"                                                    0 > ( /+^+/+!+-+@+ +X.r+Q.P * >                 ",
"                                                  - - z ( / v.^+{+{+,+@+ +X.T.n+<.& &               ",
"                                            - & ) 8 1. +#+: a (+D.^+{+~+%+ +X.q+k+O # = +           ",
"    / + ] ( > ^ ^ ^ ' _ ( ( ) > > % ) % > ; ' w [.v+X.`.z+*+V ^+<+D.<+{+-+@+`.s+k+v 3 J.8+& * ; ) 0 ",
"  7 ! l.Z.*+!+I @.|+b.'.: #.H.3+2+B.G s.*+@+`.S b n.P.Z.`.@+-+^+<+}+}+<+{+-+y+r+P.& j.8+8+b+]./.<.W.",
"  4 5 q+`.*+{+C { 3+. +.e &.I.3+1+9.' z.!+*+@+W.w R 1.n.`.z+*+{+^+}+}+:+<+~+z+X._.s c+8+8+0+g+k+T.y+",
"    = > {+{+{+' / 3+3+f m I.I.,.x.-.G D.^+!+*+.+T { [.}.y w *+!+<+F.F.}+:+!+%+o.(.7 j.7+!.b+g+l+u+z+",
"        + + + + + + + ' ~ ' ~ { % > k C.}+^+!+*+@+9 x 2.U / / r.<+F.F.1+}+{+*+V.p+M.! J.4 ~.h+o+X.@+",
"                                  _ _ ..F.<+(+p.$+2.! z ++3.c ] % e.3+F.}+{+*+`.n+i+! j.p k.h+l+X.%+",
"                            - % / ' G b.1+B.` h g =+3.: T -+)+8.( Z 1+_+:+/+*+w+n+N.O !.2 ~.h+n+X.*+",
"        & > ( / > ~ ^ ' ' ^ ' E *.d.[ I.3+1+E.s.< f )+B d I {+<+}+D.F.:+<+~+A+X.n+L.N 2 r ~.h+o+w+*+",
"    + / j A J W =.e.E.. G.e.. . . y.~ H.. 3+3+F.z.i z <+` + { w.<+:+<+^+!+*+ +r+m+f+N * 7+a+i+n+w+*+",
"  * _.S.Y.$+7.B F.3+. . Z } I.. . f.c.. . . 3+1+2+w.^ I <+<+n Y ~+!+~+*+@+`.u+q+G+c+L.* J.0+G+n+`.-+",
"  * j+q+`.@+6.d A.b.c.c.o l $.;.%.L L y.. . 3+3+1+F.u.' W ]+!+p.#+@+.+`.X.v+n+j+g+0+7++ k.e+G+t+ +*+",
"    + + + 8 : ^ _ d [ < { ( e e e [ ~ l I.. 3+3+F.F.:+Z h 5.*+.+`.X.r+q+n+k+i+g+c+8+D+J.K.L.j+r+x+-+",
"                                -.k ( { a.. 3+2+}+:+{+;+A x Y.r+q+l+j+h+g+d+d+8+8+9+E+7+K.u P y U &+",
"                            ~ ^ : | ,.,.% @.F.}+^+~+*+z+2.6 v k+i+g+c+8+F+F+E+C+D+3 # + + + # # # + ",
"                      [ > ~ K ,.E.. . 3+>.A.:+^+~+@+`.u+o+P t d+0+F+C+C+B+6+D+q # + &               ",
"                  & > ' ..|+. f.+ 0.>.} + + m >+z+X.t+l+i+M.3 L.C+B+6+5+g.1 + & M                   ",
"            b * a T s.i F.3+1+0.o ' _ n J m % b U.q+k+h+d+8+p p B+4+1 & & & h.                      ",
"          & 7 :.`.%+)+%  .C.H ) $ >   8.( # c |.<.l.f+b+i.).& + * + # 2                             ",
"          # O.X.X.@+q.: ( - &       { $ - A S U.N.7 = + + # @ @                                     ",
"          & + X.X.X.& $ +       [ ' ^ F o.|.> :.O # * =                                             ",
"            + # # &         ] ' g B 4.X.X.m.! = ;                                                   ",
"                          & a X ++z+^ S c > ]                                                       ",
"                        + . *+@+ +1.* & ;                                                           ",
"                        + . . . 6 & ;                                                               ",
"                          # + & *                                                                   "};
