/* XPM */
static char * south_on_xpm[] = {
"10 10 3 1",
" 	c None",
".	c #000000",
"+	c #7B8ED8",
" ........ ",
" ........ ",
" ..++++.. ",
" ..++++.. ",
" ..++++.. ",
"  ..++..  ",
"  ..++..  ",
"   ....   ",
"   ....   ",
"    ..    "};
