/* XPM */
static char * stun_xpm[] = {
"30 30 3 1",
" 	c None",
".	c #000000000000",
"X	c #FFFFFFFF0000",
"      ..                      ",
"     ....                     ",
"     .XX.                     ",
"     .XX.            ..       ",
" .....XX.......     ....      ",
"..XXXXXXXXXX..      .XX.      ",
" ..XXXXXXXX..       .XX.      ",
"  ..XXXXXX..    .....XX...... ",
"   .XXXXX..    ..XXXXXXXXXX.. ",
"   .XX.XXX..    ..XXXXXXXX..  ",
"   .X....XX.     ..XXXXXX..   ",
"   ... ...X.      .XXXXX..    ",
"   ..    ...      .XX.XXX..   ",
"   .       .      .X....XX.   ",
"                  ... ...X.   ",
"       ..         ..    ...   ",
"      ....        .       .   ",
"      .XX.                    ",
"      .XX.                    ",
"  .....XX......        ..     ",
" ..XXXXXXXXXX..       ....    ",
"  ..XXXXXXXX..        .XX.    ",
"   ..XXXXXX..         .XX.    ",
"    .XXXXX..      .....XX.....",
"    .XX.XXX..    ..XXXXXXXXXX.",
"    .X....XX.     ..XXXXXXXX..",
"    ... ...X.      ..XXXXXX.. ",
"    ..    ...       .XXXXX..  ",
"    .       .       .XX.XXX.. ",
"                    .X....XX. "};
