/* XPM */
static char * warlock_xpm[] = {
"32 32 611 2",
"  	c None",
". 	c #030305",
"+ 	c #040000",
"@ 	c #070000",
"# 	c #0E0200",
"$ 	c #080000",
"% 	c #110801",
"& 	c #0D0000",
"* 	c #0C0400",
"= 	c #000500",
"- 	c #000700",
"; 	c #070100",
"> 	c #0B0000",
", 	c #0B0005",
"' 	c #0D0F04",
") 	c #000200",
"! 	c #080300",
"~ 	c #080100",
"{ 	c #040300",
"] 	c #0E0000",
"^ 	c #A4905B",
"/ 	c #A9904D",
"( 	c #A6824E",
"_ 	c #917253",
": 	c #000400",
"< 	c #010100",
"[ 	c #1A0001",
"} 	c #160000",
"| 	c #7D6A63",
"1 	c #000300",
"2 	c #060800",
"3 	c #69613C",
"4 	c #1F1300",
"5 	c #070200",
"6 	c #060200",
"7 	c #060100",
"8 	c #070300",
"9 	c #7D7147",
"0 	c #A89167",
"a 	c #A88F66",
"b 	c #92855B",
"c 	c #090300",
"d 	c #110000",
"e 	c #B39559",
"f 	c #AB8439",
"g 	c #CC9A5B",
"h 	c #512A00",
"i 	c #0D0100",
"j 	c #000100",
"k 	c #080700",
"l 	c #171000",
"m 	c #78634E",
"n 	c #1B0000",
"o 	c #120000",
"p 	c #0D1307",
"q 	c #060000",
"r 	c #736536",
"s 	c #221500",
"t 	c #0E0600",
"u 	c #242005",
"v 	c #625D4A",
"w 	c #100800",
"x 	c #110200",
"y 	c #462E00",
"z 	c #B38E62",
"A 	c #C9A47A",
"B 	c #B39C72",
"C 	c #120100",
"D 	c #9E795C",
"E 	c #97673F",
"F 	c #CF9D6A",
"G 	c #310C00",
"H 	c #0C0500",
"I 	c #0D1200",
"J 	c #070400",
"K 	c #251A00",
"L 	c #816C3D",
"M 	c #412500",
"N 	c #290700",
"O 	c #0D0E00",
"P 	c #110100",
"Q 	c #412B00",
"R 	c #8C7736",
"S 	c #3C2B00",
"T 	c #877C44",
"U 	c #413924",
"V 	c #1D0000",
"W 	c #D3A68F",
"X 	c #AB8270",
"Y 	c #9A7A6F",
"Z 	c #996E65",
"` 	c #7B473A",
" .	c #B68372",
"..	c #AC8870",
"+.	c #0A0800",
"@.	c #887E41",
"#.	c #2E1B00",
"$.	c #301200",
"%.	c #B49159",
"&.	c #765427",
"*.	c #957B5A",
"=.	c #281B08",
"-.	c #2C1800",
";.	c #8C734B",
">.	c #5C4001",
",.	c #AF9242",
"'.	c #765900",
").	c #836A1A",
"!.	c #0F0000",
"~.	c #150200",
"{.	c #230300",
"].	c #A47D6C",
"^.	c #CBA4A9",
"/.	c #7C5661",
"(.	c #9A7A7B",
"_.	c #1B0100",
":.	c #926665",
"<.	c #4D1822",
"[.	c #552346",
"}.	c #9F788A",
"|.	c #A28B61",
"1.	c #3E2C00",
"2.	c #371F00",
"3.	c #C09E57",
"4.	c #E6B66E",
"5.	c #C99853",
"6.	c #D3AB6E",
"7.	c #9C774B",
"8.	c #B78D7F",
"9.	c #896253",
"0.	c #A28158",
"a.	c #AA8B4A",
"b.	c #C4A64C",
"c.	c #C3A038",
"d.	c #E9BA4E",
"e.	c #BE9334",
"f.	c #321B00",
"g.	c #241100",
"h.	c #82674A",
"i.	c #9A7C7A",
"j.	c #422953",
"k.	c #503A61",
"l.	c #866E6A",
"m.	c #090006",
"n.	c #90696E",
"o.	c #65354D",
"p.	c #3A0F56",
"q.	c #492360",
"r.	c #B89B95",
"s.	c #AC9464",
"t.	c #8D7336",
"u.	c #AF8C48",
"v.	c #DEAE64",
"w.	c #BC8B48",
"x.	c #69440F",
"y.	c #B59076",
"z.	c #552231",
"A.	c #6E3A47",
"B.	c #B78E72",
"C.	c #8A682B",
"D.	c #B39444",
"E.	c #E2BD62",
"F.	c #CB9439",
"G.	c #BA8633",
"H.	c #AA8848",
"I.	c #B39D76",
"J.	c #A08884",
"K.	c #240F30",
"L.	c #302067",
"M.	c #685994",
"N.	c #8D7A76",
"O.	c #00000B",
"P.	c #836C72",
"Q.	c #4A2948",
"R.	c #1E0054",
"S.	c #3A1E84",
"T.	c #472C79",
"U.	c #8B7395",
"V.	c #B2A183",
"W.	c #150100",
"X.	c #1F0000",
"Y.	c #B99660",
"Z.	c #B89E87",
"`.	c #44273B",
" +	c #340951",
".+	c #35034A",
"++	c #A57988",
"@+	c #A37F69",
"#+	c #A48664",
"$+	c #230000",
"%+	c #2A0000",
"&+	c #B27B54",
"*+	c #946946",
"=+	c #C7AAA6",
"-+	c #1F0C43",
";+	c #12045C",
">+	c #433594",
",+	c #544588",
"'+	c #897678",
")+	c #0D0200",
"!+	c #000104",
"~+	c #928072",
"{+	c #5B3D49",
"]+	c #2B075E",
"^+	c #1E0075",
"/+	c #311590",
"(+	c #6A55A4",
"_+	c #7B6E66",
":+	c #140500",
"<+	c #1C0200",
"[+	c #95784C",
"}+	c #998375",
"|+	c #371F3F",
"1+	c #1B0057",
"2+	c #512C8B",
"3+	c #967192",
"4+	c #8E6C6A",
"5+	c #8B7067",
"6+	c #170000",
"7+	c #1E0000",
"8+	c #9B6F62",
"9+	c #C69B8B",
"0+	c #48273A",
"a+	c #1C0E66",
"b+	c #0F0575",
"c+	c #311F75",
"d+	c #614B7A",
"e+	c #9F8C85",
"f+	c #090200",
"g+	c #AA945A",
"h+	c #A78063",
"i+	c #491152",
"j+	c #2A006B",
"k+	c #290A8C",
"l+	c #4E3D99",
"m+	c #897A7D",
"n+	c #180000",
"o+	c #65481E",
"p+	c #A88D70",
"q+	c #4C3642",
"r+	c #372676",
"s+	c #2C1A70",
"t+	c #89728F",
"u+	c #6F5A57",
"v+	c #7A6A5D",
"w+	c #0A0000",
"x+	c #9A7471",
"y+	c #401F3E",
"z+	c #13096C",
"A+	c #282189",
"B+	c #513565",
"C+	c #BD9D9E",
"D+	c #968162",
"E+	c #0C0700",
"F+	c #150E00",
"G+	c #D1A87C",
"H+	c #6D3250",
"I+	c #350051",
"J+	c #43289D",
"K+	c #281A79",
"L+	c #4D4250",
"M+	c #94866B",
"N+	c #160100",
"O+	c #644B2D",
"P+	c #A48A67",
"Q+	c #917F7B",
"R+	c #494786",
"S+	c #3A3A80",
"T+	c #5A5267",
"U+	c #9B8E86",
"V+	c #130C00",
"W+	c #775963",
"X+	c #5B3C68",
"Y+	c #302686",
"Z+	c #271E71",
"`+	c #83646A",
" @	c #CFAD8A",
".@	c #140000",
"+@	c #0F0900",
"@@	c #AA8966",
"#@	c #D7AA93",
"$@	c #3E1729",
"%@	c #2A166D",
"&@	c #251F77",
"*@	c #3A3752",
"=@	c #615C59",
"-@	c #130504",
";@	c #160300",
">@	c #7D7666",
",@	c #4D5A84",
"'@	c #314371",
")@	c #585D60",
"!@	c #63604F",
"~@	c #100400",
"{@	c #010500",
"]@	c #010300",
"^@	c #85738B",
"/@	c #422A64",
"(@	c #342673",
"_@	c #60507D",
":@	c #C2A681",
"<@	c #AD9054",
"[@	c #130000",
"}@	c #140600",
"|@	c #1A0200",
"1@	c #A8895B",
"2@	c #B29587",
"3@	c #250E52",
"4@	c #2F2176",
"5@	c #9795BA",
"6@	c #05040C",
"7@	c #81786F",
"8@	c #555F94",
"9@	c #2D3D79",
"0@	c #596072",
"a@	c #7D7A73",
"b@	c #140C00",
"c@	c #8D877B",
"d@	c #312354",
"e@	c #24135A",
"f@	c #523D75",
"g@	c #A790A0",
"h@	c #B0996D",
"i@	c #1B0800",
"j@	c #997F72",
"k@	c #482164",
"l@	c #341268",
"m@	c #504570",
"n@	c #87818B",
"o@	c #170400",
"p@	c #150000",
"q@	c #8F7A89",
"r@	c #433597",
"s@	c #332A9D",
"t@	c #3C3875",
"u@	c #8A8099",
"v@	c #200000",
"w@	c #8A6D83",
"x@	c #2A1D6F",
"y@	c #2E2276",
"z@	c #735571",
"A@	c #9F827C",
"B@	c #0F0200",
"C@	c #836A65",
"D@	c #5F3577",
"E@	c #2D055E",
"F@	c #251554",
"G@	c #443A5D",
"H@	c #A18E92",
"I@	c #8F7872",
"J@	c #887177",
"K@	c #4B3563",
"L@	c #1F1182",
"M@	c #3328A8",
"N@	c #29257A",
"O@	c #382F64",
"P@	c #85718D",
"Q@	c #9E7E95",
"R@	c #957092",
"S@	c #2E124F",
"T@	c #241F86",
"U@	c #39338B",
"V@	c #6F5060",
"W@	c #8E7161",
"X@	c #130700",
"Y@	c #846B6F",
"Z@	c #4C246B",
"`@	c #361077",
" #	c #230F72",
".#	c #23176D",
"+#	c #524686",
"@#	c #7365A0",
"##	c #58488F",
"$#	c #342B7E",
"%#	c #282E8E",
"&#	c #2B3596",
"*#	c #1F237A",
"=#	c #363A84",
"-#	c #4A508E",
";#	c #5A5DA0",
">#	c #434099",
",#	c #2E2D95",
"'#	c #1C2395",
")#	c #414295",
"!#	c #634C60",
"~#	c #927C71",
"{#	c #9D8585",
"]#	c #59366C",
"^#	c #27045E",
"/#	c #1C0672",
"(#	c #150778",
"_#	c #20157D",
":#	c #392F92",
"<#	c #463698",
"[#	c #42388E",
"}#	c #404484",
"|#	c #3D427A",
"1#	c #433D79",
"2#	c #3E3B80",
"3#	c #293484",
"4#	c #223498",
"5#	c #2D3BB8",
"6#	c #202AAD",
"7#	c #2A31A5",
"8#	c #45418D",
"9#	c #795E6D",
"0#	c #937C6E",
"a#	c #050500",
"b#	c #9E8473",
"c#	c #AE909A",
"d#	c #361947",
"e#	c #1D0863",
"f#	c #030069",
"g#	c #080078",
"h#	c #241687",
"i#	c #301C71",
"j#	c #60477E",
"k#	c #876F87",
"l#	c #60454C",
"m#	c #8F6F74",
"n#	c #634A68",
"o#	c #363287",
"p#	c #2C36B1",
"q#	c #1622B2",
"r#	c #0E15A1",
"s#	c #332B9A",
"t#	c #452F6D",
"u#	c #C09898",
"v#	c #9F7B61",
"w#	c #190800",
"x#	c #9B816A",
"y#	c #553945",
"z#	c #200451",
"A#	c #180072",
"B#	c #0F0077",
"C#	c #0E006B",
"D#	c #28135E",
"E#	c #826895",
"F#	c #A9869A",
"G#	c #4D242A",
"H#	c #A3747A",
"I#	c #936E8D",
"J#	c #3D3185",
"K#	c #1A1C97",
"L#	c #03099B",
"M#	c #16149C",
"N#	c #321F7B",
"O#	c #7F608A",
"P#	c #9D7667",
"Q#	c #A99364",
"R#	c #684738",
"S#	c #46175B",
"T#	c #2C006A",
"U#	c #0E0057",
"V#	c #230E69",
"W#	c #37286D",
"X#	c #312057",
"Y#	c #3A1C52",
"Z#	c #421B52",
"`#	c #451C56",
" $	c #4A2769",
".$	c #423483",
"+$	c #373195",
"@$	c #0D0688",
"#$	c #1C0D84",
"$$	c #301353",
"%$	c #644453",
"&$	c #A3896E",
"*$	c #180600",
"=$	c #B09C69",
"-$	c #BB987C",
";$	c #5E2751",
">$	c #3E075A",
",$	c #2B0666",
"'$	c #331F80",
")$	c #342F83",
"!$	c #2F2A7C",
"~$	c #3D2A86",
"{$	c #53379B",
"]$	c #391B7F",
"^$	c #3E2487",
"/$	c #443695",
"($	c #31298E",
"_$	c #31249A",
":$	c #1F0C68",
"<$	c #583B51",
"[$	c #B29784",
"}$	c #A19678",
"|$	c #C3A283",
"1$	c #B3807F",
"2$	c #47123E",
"3$	c #230066",
"4$	c #2C1D9A",
"5$	c #1F289D",
"6$	c #222EA6",
"7$	c #211DA5",
"8$	c #1A0D99",
"9$	c #372CAF",
"0$	c #211899",
"a$	c #2C26AA",
"b$	c #2925A0",
"c$	c #27208A",
"d$	c #372D62",
"e$	c #A18E6E",
"f$	c #A09158",
"g$	c #040600",
"h$	c #160600",
"i$	c #BC9180",
"j$	c #5E344C",
"k$	c #351B80",
"l$	c #201AA2",
"m$	c #1524A5",
"n$	c #2536B8",
"o$	c #221FAC",
"p$	c #2419A4",
"q$	c #22189B",
"r$	c #342FB0",
"s$	c #2524AC",
"t$	c #1D1F9A",
"u$	c #282B88",
"v$	c #706C91",
"w$	c #AB9D6E",
"x$	c #1C0E00",
"y$	c #84665B",
"z$	c #5D435C",
"A$	c #352B8C",
"B$	c #1D22A2",
"C$	c #2233A9",
"D$	c #3B47B5",
"E$	c #3E2E99",
"F$	c #33187F",
"G$	c #3D2489",
"H$	c #42339A",
"I$	c #242693",
"J$	c #1E2B91",
"K$	c #4152A2",
"L$	c #646C93",
"M$	c #88785F",
"N$	c #9A806F",
"O$	c #47333F",
"P$	c #130962",
"Q$	c #141486",
"R$	c #212B82",
"S$	c #393C7F",
"T$	c #3B265E",
"U$	c #5A3A6B",
"V$	c #422553",
"W$	c #2A1452",
"X$	c #090262",
"Y$	c #1E2283",
"Z$	c #283371",
"`$	c #52566F",
" %	c #958273",
".%	c #1E0300",
"+%	c #9A7C5A",
"@%	c #907268",
"#%	c #341863",
"$%	c #37227D",
"%%	c #352F53",
"&%	c #726C6E",
"*%	c #A18B7E",
"=%	c #94765E",
"-%	c #9B815E",
";%	c #72575E",
">%	c #2B0D71",
",%	c #3A208E",
"'%	c #44385E",
")%	c #938882",
"!%	c #A68C7B",
"~%	c #230100",
"{%	c #AE8976",
"]%	c #684072",
"^%	c #36154A",
"/%	c #6F5E57",
"(%	c #A39771",
"_%	c #170300",
":%	c #A08572",
"<%	c #522776",
"[%	c #30045B",
"}%	c #81636D",
"|%	c #AC947A",
"1%	c #1C0500",
"2%	c #A47968",
"3%	c #7B4D57",
"4%	c #653D3E",
"5%	c #937C53",
"6%	c #9A8D58",
"7%	c #0D0300",
"8%	c #B9A395",
"9%	c #825775",
"0%	c #64324F",
"a%	c #AD806B",
"b%	c #A2815E",
"c%	c #886B59",
"d%	c #9E7B75",
"e%	c #B79589",
"f%	c #A38A62",
"g%	c #78693E",
"h%	c #0F0D00",
"i%	c #847268",
"j%	c #A88685",
"k%	c #AB827C",
"l%	c #A07B5E",
"m%	c #0B0400",
"n%	c #040800",
"o%	c #060002",
"p%	c #0A0002",
"q%	c #030000",
"r%	c #190A00",
"s%	c #170A00",
"t%	c #000800",
"                                                                ",
"    . + @ # $ %           & * =     - ; > ,       ' ) ! ~ + {   ",
"    ] ^ / ( _ >   : < > [ } | 1     2 3 4 @ 5 6 7 8 9 0 a b c   ",
"    d e f g h i j k l m } n o p     q r s t u v w x y z A B ]   ",
"    C D E F G H I J K L M N o O 1 ; P Q R S T U > } V W X Y o   ",
"    ] Z `  ...> +.@.#.$.%.&.*.=.> -.;.>.,.'.).!.~.{.].^./.(._.  ",
"    ] :.<.[.}.|.1.2.3.4.5.6.7.8.9.0.a.b.c.d.e.f.g.h.i.j.k.l.!.  ",
"    m.n.o.p.q.r.s.t.u.v.w.x.y.z.A.B.C.D.E.F.G.H.I.J.K.L.M.N.&   ",
"    O.P.Q.R.S.T.U.V.W.X.Y.Z.`. +.+++@+#+$+%+&+*+=+-+;+>+,+'+)+  ",
"    !+~+{+]+^+/+(+_+:+<+[+}+|+1+2+3+4+5+6+7+8+9+0+a+b+c+d+e+f+  ",
"    7 g+h+i+j+k+l+m+d n+o+p+q+r+s+t+u+v+> w+o x+y+z+A+B+C+D+E+  ",
"    F+n+G+H+I+J+K+L+M+N+O+P+Q+R+S+T+U+w+V+) + W+X+Y+Z+`+ @.@+@  ",
"      d @@#@$@%@&@*@=@-@!.;@>@,@'@)@!@~@$ {@]@^@/@(@_@:@<@[@    ",
"      }@|@1@2@3@4@5@6@w+] d 7@8@9@0@a@!.!.b@c@d@e@f@g@h@W.>     ",
"        & i@j@k@l@m@n@o@p@p@q@r@s@t@u@.@v@V w@x@y@z@A@B@q       ",
"          & C@D@E@F@G@H@I@J@K@L@M@N@O@P@Q@R@S@T@U@V@W@+         ",
"          X@Y@Z@`@ #.#+#@###$#%#&#*#=#-#;#>#,#'#)#!#~#j         ",
"          & {#]#^#/#(#_#:#<#[#}#|#1#2#3#4#5#6#7#8#9#0#a#        ",
"          !.b#c#d#e#f#g#h#i#j#k#l#m#n#o#p#q#r#s#t#u#v#$         ",
"          w#o x#y#z#A#B#C#D#E#F#G#H#I#J#K#L#M#N#O#P#n >         ",
"            x Q#R#S#T#U#V#W#X#Y#Z#`# $.$+$@$#$$$%$&$*$          ",
"            $ =$-$;$>$,$'$)$!$~${$]$^$/$($_$:$<$[$}$!           ",
"            < !.|$1$2$3$4$5$6$7$8$9$0$a$b$c$d$e$f$g$)           ",
"              h$n+i$j$k$l$m$n$o$p$q$r$s$t$u$v$w$x$)             ",
"                [@y$z$A$B$C$D$E$F$G$H$I$J$K$L$M$.@              ",
"                !.N$O$P$Q$R$S$T$U$V$W$X$Y$Z$`$ %.%              ",
"                .@+%@%#%$%%%&%*%=%-%;%>%,%'%)%!%.@              ",
"                p@~%{%]%^%/%(%d _%W.:%<%[%}%|%1%o               ",
"                  V 2%3%4%5%6%!   7%8%9%0%a%b%]                 ",
"                  .@c%d%e%f%g%h%  q i%j%k%l%h.m%                ",
"                  n%1 o%p%] > q%  o%& & r%s%+ t%                ",
"                                                                "};
