/* XPM */
static char * warlock_error_xpm[] = {
"30 30 4 1",
" 	c None",
".	c #AD1313",
"+	c #5E0909",
"@	c #B79328",
"                              ",
"                              ",
"                              ",
"                              ",
"        .........+            ",
"       ...........++          ",
"     ...............+         ",
"     ...............+         ",
"    ...+++++++++++...+        ",
"   .....+@@@@@@@++....+       ",
"   .....+@@@@@@++.....+       ",
"   .....++@@@@@+......+       ",
"   ......+@@@@++......+       ",
"   ......+@@@++.......+       ",
"   ......+@@++........+       ",
"   ......+@@+.........+       ",
"   .......+++.........+       ",
"   .......++..........+       ",
"    ......+..........+        ",
"     ...++++........+         ",
"     ...+@@+........+         ",
"       .++++......++          ",
"        .........+            ",
"        +++++++++             ",
"                              ",
"                              ",
"                              ",
"                              ",
"                              ",
"                              "};
