/* XPM */
static char * webbed_xpm[] = {
"35 35 4 1",
" 	c None",
".	c #FFFFFF",
"+	c #FEFEFE",
"@	c #666666",
"             @.        @@@@@@@@@.  ",
"            @@@@@@@@@@@.      @.@@@",
"          @@. @.              @.   ",
"        @@.   @.             @.    ",
"      @@.     @.            @.     ",
"    @@.       @.            @.     ",
"+ @@.          @.          @.      ",
"@@.            @.         @.       ",
"@.@.           @@@@@@@@@@@@.       ",
"@. @@.       @@@.        @.@.      ",
"@.   @.    @@.  @.       @.@.      ",
"@.    @@.@@.    @.      @.  @.     ",
"@.     @@.      @.  @@@@.    @.    ",
"@.     @.@@.    @@@@.  @@.   @.    ",
"@.     @.  @. @@.@.   @.@.    @.   ",
".      @.   @@.  @.  @.  @.   @.   ",
".      @.   @.@. @.  @.  @.    @.  ",
".     @.    @. @. @.@.    @. @@@@@@",
".     @.    @.  @@@@.@@@@@@@@. @.  ",
".     @.    @@@@@@@@@.    @.   @.  ",
".   @@@@@@@@.@.   @@@.    @.   @.  ",
"@@@@. @.      @. @.@.@.  @.    @.  ",
"@.     @.      @.@.@. @@.@.   @.   ",
" @.     @@.     @@@@.   @@.   @.   ",
"  @.      @.   @.  @.   @@@.  @.   ",
"   @.      @.  @.   @.@@.  @. @.   ",
"    @.      @@@.  @@@@.     @@@.   ",
"     @.       @@@@. @.        @.   ",
"     @.      @.     @.       @.@@+ ",
"      @.    @.       @.    @@.   @.",
"       @.   @.       @.   @.      @",
"        @. @.        @.  @.        ",
"         @@.         @.@@.         ",
"          @@@@@@@@@@@@@.           ",
"         @.           @.           "};
